<?xml version="1.0" encoding="UTF-8"?>
<svg xmlns="http://www.w3.org/2000/svg" xmlns:xlink="http://www.w3.org/1999/xlink" viewBox="0 0 30 30" width="30px" height="30px">
<g id="surface78001979">
<path style=" stroke:none;fill-rule:nonzero;fill:rgb(100%,100%,100%);fill-opacity:1;" d="M 15 4.800781 C 20.632812 4.800781 25.199219 9.367188 25.199219 15 C 25.199219 19.527344 22.246094 23.367188 18.164062 24.699219 C 18.164062 24.695312 18.164062 24.6875 18.164062 24.6875 C 18.164062 24.6875 17.476562 24.367188 17.492188 23.789062 C 17.507812 23.15625 17.492188 21.675781 17.492188 21.132812 C 17.492188 20.203125 16.902344 19.542969 16.902344 19.542969 C 16.902344 19.542969 21.527344 19.59375 21.527344 14.65625 C 21.527344 12.753906 20.53125 11.761719 20.53125 11.761719 C 20.53125 11.761719 21.054688 9.730469 20.351562 8.867188 C 19.5625 8.78125 18.148438 9.621094 17.546875 10.015625 C 17.546875 10.015625 16.589844 9.621094 15 9.621094 C 13.410156 9.621094 12.453125 10.015625 12.453125 10.015625 C 11.851562 9.621094 10.4375 8.78125 9.648438 8.867188 C 8.945312 9.730469 9.46875 11.761719 9.46875 11.761719 C 9.46875 11.761719 8.472656 12.753906 8.472656 14.65625 C 8.472656 19.59375 13.097656 19.542969 13.097656 19.542969 C 13.097656 19.542969 12.628906 20.066406 12.527344 20.84375 C 12.207031 20.953125 11.730469 21.085938 11.347656 21.085938 C 10.34375 21.085938 9.582031 20.113281 9.300781 19.660156 C 9.023438 19.214844 8.457031 18.839844 7.933594 18.839844 C 7.585938 18.839844 7.414062 19.015625 7.414062 19.210938 C 7.414062 19.410156 7.902344 19.550781 8.222656 19.917969 C 8.902344 20.695312 8.890625 22.4375 11.304688 22.4375 C 11.566406 22.4375 12.101562 22.375 12.503906 22.320312 C 12.5 22.871094 12.5 23.449219 12.507812 23.789062 C 12.523438 24.363281 11.835938 24.6875 11.835938 24.6875 C 11.835938 24.6875 11.835938 24.691406 11.835938 24.695312 C 7.753906 23.367188 4.800781 19.527344 4.800781 15 C 4.800781 9.367188 9.367188 4.800781 15 4.800781 Z M 15 4.800781 "/>
</g>
</svg>
